<svg width="20" height="16" viewBox="0 0 20 16" fill="none" xmlns="http://www.w3.org/2000/svg">
<path d="M19.0909 2.44925C18.4148 2.74128 17.6943 2.93485 16.9432 3.02883C17.7159 2.57457 18.3057 1.86072 18.583 1.0003C17.8625 1.42324 17.0671 1.72198 16.2193 1.88869C15.5353 1.17149 14.5603 0.727295 13.4966 0.727295C11.433 0.727295 9.77162 2.37653 9.77162 4.39834C9.77162 4.68925 9.79662 4.96897 9.85798 5.23527C6.75912 5.08646 4.01707 3.62408 2.17503 1.39639C1.85344 1.94576 1.6648 2.57457 1.6648 3.25149C1.6648 4.52254 2.32957 5.64925 3.32048 6.30156C2.72162 6.29037 2.13412 6.11918 1.63639 5.84953C1.63639 5.86072 1.63639 5.87527 1.63639 5.88981C1.63639 7.67331 2.92844 9.15471 4.62275 9.49597C4.31935 9.57764 3.98866 9.61681 3.64548 9.61681C3.40685 9.61681 3.16594 9.60338 2.9398 9.55415C3.42276 11.0076 4.79321 12.0761 6.42276 12.1108C5.15457 13.0876 3.54435 13.6761 1.80116 13.6761C1.49548 13.6761 1.2023 13.6627 0.909119 13.6258C2.56025 14.6741 4.51707 15.2727 6.6273 15.2727C13.4864 15.2727 17.2364 9.67834 17.2364 4.82911C17.2364 4.66688 17.2307 4.51023 17.2228 4.35471C17.9625 3.83778 18.5841 3.19219 19.0909 2.44925Z" fill="#575D70"/>
</svg>
