<svg width="20" height="18" viewBox="0 0 20 18" fill="none" xmlns="http://www.w3.org/2000/svg">
<path d="M12.146 4.12725C12.146 4.53782 12.2931 4.94838 12.6084 5.2509L14.6887 7.39016H7.03966C6.17809 7.39016 5.50565 8.10324 5.50565 8.96759C5.50565 9.83193 6.19911 10.545 7.03966 10.545H14.7097L12.6294 12.6843C12.02 13.3109 12.02 14.3049 12.6294 14.9316C13.2388 15.5582 14.2054 15.5582 14.8148 14.9316L19.5429 10.0696C20.1523 9.44298 20.1523 8.44898 19.5429 7.82233L14.7938 3.0036C14.1844 2.37695 13.2178 2.37695 12.6084 3.0036C12.3142 3.32773 12.146 3.7383 12.146 4.12725Z" fill="#575D70"/>
<path d="M7.22879 16.4226C7.22879 15.5366 6.53533 14.8451 5.69477 14.8451H3.08905V3.15486H5.69477C6.55634 3.15486 7.22879 2.44178 7.22879 1.57743C7.22879 0.713085 6.53533 0 5.69477 0H1.53402C0.672446 0 0 0.713085 0 1.57743V16.4226C0 17.3085 0.69346 18 1.53402 18H5.69477C6.55634 18 7.22879 17.2869 7.22879 16.4226Z" fill="#575D70"/>
</svg>
