<svg width="18" height="18" viewBox="0 0 18 18" fill="none" xmlns="http://www.w3.org/2000/svg">
<path d="M14.5508 0.818176H3.44919C1.97326 0.818176 0.818176 1.97326 0.818176 3.38502V14.5508C0.818176 15.9626 1.97326 17.1818 3.44919 17.1818H9.60962V10.8289H7.49197V8.39037H9.60962V6.52941C9.60962 4.41176 10.893 3.25668 12.754 3.25668C13.6524 3.25668 14.4225 3.32085 14.6791 3.38502V5.56684H13.3957C12.369 5.56684 12.1765 6.08021 12.1765 6.78609V8.39037H14.615L14.2941 10.8289H12.1765V17.1818H14.615C16.0267 17.1818 17.1818 16.0267 17.1818 14.5508V3.38502C17.1818 1.97326 16.0267 0.818176 14.5508 0.818176Z" fill="#575D70"/>
</svg>
