<svg width="18" height="18" viewBox="0 0 18 18" fill="none" xmlns="http://www.w3.org/2000/svg">
<path fill-rule="evenodd" clip-rule="evenodd" d="M17.1623 13.6364C17.1039 14.2792 17.0065 14.7273 16.7727 15.1948C16.3247 16.1104 15.526 16.7727 14.5325 17.026C14.1818 17.1234 13.8506 17.1623 13.3052 17.1818C13.1104 17.1818 11.0455 17.1818 8.98052 17.1818C6.91558 17.1818 4.85064 17.1818 4.65584 17.1623C4.16883 17.1429 3.7987 17.0844 3.46753 17.0065C2.4935 16.7532 1.67532 16.0714 1.22727 15.1753C0.993501 14.7078 0.896098 14.2792 0.837657 13.5974C0.818176 13.4026 0.818176 12.4091 0.818176 9C0.818176 7.85064 0.818176 6.9935 0.818176 6.33116C0.818176 4.38311 0.837657 4.30519 0.896098 3.91558C1.01298 3.13636 1.32467 2.45454 1.85064 1.92857C2.14285 1.63636 2.41558 1.42207 2.78571 1.24675C3.25324 1.01298 3.70129 0.896098 4.40259 0.837657C4.5974 0.818176 5.5909 0.818176 9 0.818176H11.6688C13.6169 0.818176 13.6948 0.837657 14.0844 0.896098C14.8636 1.01298 15.526 1.32467 16.0714 1.85064C16.3831 2.14285 16.5779 2.43506 16.7727 2.80519C17.0065 3.27272 17.1234 3.72077 17.1623 4.36363C17.1818 4.49999 17.1818 6.74025 17.1818 9C17.1818 11.2403 17.1818 13.4805 17.1623 13.6364ZM15 6.50649C14.961 5.86363 14.8636 5.41558 14.7273 5.04545C14.5714 4.65584 14.3571 4.30519 14.026 3.97402C13.6948 3.64285 13.3636 3.42857 12.9545 3.27272C12.5649 3.11688 12.1364 3.01948 11.4935 2.99999C10.8506 2.96103 10.6364 2.96103 9 2.96103C7.36363 2.96103 7.14935 2.96103 6.50649 2.99999C5.86363 3.03896 5.41558 3.13636 5.04545 3.27272C4.65584 3.42857 4.30519 3.64285 3.97402 3.97402C3.64285 4.30519 3.42857 4.65584 3.27272 5.04545C3.11688 5.43506 3.01948 5.86363 2.99999 6.50649C2.96103 7.14935 2.96103 7.36363 2.96103 9C2.96103 10.6364 2.96103 10.8506 2.99999 11.4935C3.03896 12.1364 3.13636 12.5844 3.27272 12.9545C3.42857 13.3442 3.64285 13.6948 3.97402 14.026C4.30519 14.3571 4.65584 14.5714 5.04545 14.7273C5.43506 14.8831 5.86363 14.9805 6.50649 15C7.14935 15.039 7.36363 15.039 9 15.039C10.6364 15.039 10.8506 15.039 11.4935 15C12.1364 14.961 12.5844 14.8636 12.9545 14.7273C13.3442 14.5714 13.6948 14.3571 14.026 14.026C14.3571 13.6948 14.5714 13.3442 14.7273 12.9545C14.8831 12.5649 14.9805 12.1364 15 11.4935C15.039 10.8506 15.039 10.6364 15.039 9C15.039 7.36363 15.039 7.14935 15 6.50649ZM13.7143 12.5649C13.5974 12.8377 13.4805 13.0519 13.2662 13.2662C13.0519 13.4805 12.8571 13.6169 12.5649 13.7143C12.3506 13.7922 12.039 13.8896 11.4351 13.9286C10.7922 13.948 10.5974 13.9675 9 13.9675C7.38311 13.9675 7.18831 13.9675 6.56493 13.9286C5.98051 13.9091 5.64935 13.8117 5.43506 13.7143C5.16233 13.5974 4.94805 13.4805 4.73376 13.2662C4.51948 13.0519 4.38311 12.8571 4.28571 12.5649C4.20779 12.3506 4.11038 12.039 4.07142 11.4351C4.05194 10.7922 4.03246 10.5974 4.03246 9C4.03246 7.40259 4.03246 7.18831 4.07142 6.56493C4.0909 5.98051 4.18831 5.64935 4.28571 5.43506C4.40259 5.16233 4.51948 4.94805 4.73376 4.73376C4.94805 4.51948 5.14285 4.38311 5.43506 4.28571C5.64935 4.20779 5.96103 4.11038 6.56493 4.07142C7.12987 4.05194 7.34415 4.03246 8.45454 4.03246C8.61039 4.03246 8.78571 4.03246 9 4.03246C10.6169 4.03246 10.8117 4.03246 11.4351 4.07142C12.0195 4.0909 12.3506 4.18831 12.5649 4.28571C12.8377 4.40259 13.0519 4.51948 13.2662 4.73376C13.4805 4.94805 13.6169 5.14285 13.7143 5.43506C13.7922 5.64935 13.8896 5.96103 13.9286 6.56493C13.948 7.20779 13.9675 7.40259 13.9675 9C13.9675 10.6169 13.9675 10.8117 13.9286 11.4351C13.8896 12.039 13.7922 12.3506 13.7143 12.5649ZM9 5.90259C7.28571 5.90259 5.90259 7.28571 5.90259 9C5.90259 10.7143 7.28571 12.0974 9 12.0974C10.7143 12.0974 12.0974 10.7143 12.0974 9C12.0974 7.28571 10.7143 5.90259 9 5.90259ZM12.2143 5.04545C11.8052 5.04545 11.4935 5.37662 11.4935 5.76623C11.4935 6.17532 11.8247 6.48701 12.2143 6.48701C12.6234 6.48701 12.9351 6.15584 12.9351 5.76623C12.9545 5.37662 12.6234 5.04545 12.2143 5.04545ZM9 11.0065C7.88961 11.0065 6.9935 10.1104 6.9935 9C6.9935 7.88961 7.88961 6.9935 9 6.9935C10.1104 6.9935 11.0065 7.88961 11.0065 9C11.0065 10.1104 10.1104 11.0065 9 11.0065Z" fill="#575D70"/>
</svg>
