<svg  viewBox="0 0 34 34" fill="none" xmlns="http://www.w3.org/2000/svg">
<path d="M33.3553 16.2828V12.5978C33.3588 12.5543 33.3588 12.5075 33.3588 12.464C33.3448 11.7042 33.0452 10.9846 32.4911 10.4391C31.9476 9.90691 31.2089 9.62576 30.4423 9.59564C30.3203 9.5923 30.1984 9.59564 30.0764 9.59564H27.3516C27.5711 9.18732 27.7488 8.74552 27.8603 8.30373C28.0101 7.72471 28.0868 7.10219 28.0485 6.50309C27.9718 5.33501 27.6025 4.16024 26.8603 3.21976C26.6408 2.94196 26.4247 2.66751 26.1669 2.42319C25.9055 2.17552 25.6094 1.95797 25.3132 1.74711C24.8254 1.40238 24.2748 1.1614 23.7069 0.96393C22.5431 0.558953 21.1981 0.542218 20.0099 0.843441C19.4314 0.990706 18.853 1.22499 18.3443 1.52621C17.8565 1.8174 17.3861 2.16882 16.9923 2.58049C16.4348 2.00482 15.7728 1.52956 15.0201 1.21495C14.6717 1.07103 14.3302 0.930461 13.9644 0.840094C13.5915 0.749727 13.2047 0.70287 12.8249 0.662707C12.1977 0.599116 11.5566 0.669401 10.9433 0.78989C10.351 0.903686 9.76908 1.13128 9.24293 1.40572C8.72026 1.67682 8.23244 2.03829 7.81431 2.43992C7.39618 2.84155 7.01986 3.31347 6.73762 3.81216C6.45189 4.31755 6.21495 4.87983 6.09299 5.44546C5.82469 6.7039 5.92922 7.97908 6.44841 9.16389C6.51461 9.31115 6.5843 9.45507 6.65747 9.59564H3.6051C3.59813 9.59564 3.59465 9.59564 3.58768 9.59564C3.57374 9.59564 3.5598 9.59564 3.54935 9.59564C3.53889 9.59564 3.53193 9.59564 3.52496 9.59564C2.99532 9.61572 2.45175 9.7563 2.01271 10.0475C1.42035 10.4424 1.03358 10.9378 0.786184 11.5804C0.657259 11.9184 0.636353 12.2832 0.636353 12.6413V17.3103C0.639837 18.0767 0.936015 18.8198 1.50398 19.3653C1.84197 19.69 2.25313 19.9242 2.69914 20.0581V29.0044C2.69914 29.4998 2.69566 29.9951 2.69914 30.4905C2.70263 30.795 2.74096 31.1197 2.85594 31.4075C3.03017 31.8393 3.2462 32.2409 3.60858 32.5589C3.97794 32.8802 4.3438 33.0843 4.8142 33.2383C5.1278 33.3421 5.47276 33.3621 5.80378 33.3621H27.6931C28.1983 33.3621 28.7245 33.3889 29.2088 33.2149C29.6618 33.0509 30.0764 32.84 30.4144 32.4953C30.7559 32.1506 30.9615 31.7891 31.1287 31.3439C31.2298 31.0728 31.2577 30.7683 31.2611 30.4838V20.0615C31.4145 20.0146 31.5643 19.9544 31.7281 19.8874C32.2124 19.6833 32.5783 19.3051 32.8779 18.8967C33.188 18.475 33.3204 17.9529 33.3518 17.4442C33.3762 17.0593 33.3553 16.6677 33.3553 16.2828ZM18.7415 6.78757C18.7415 6.7608 18.7415 6.73402 18.7415 6.7039C18.745 6.60684 18.7485 6.50978 18.7555 6.41272C18.8008 6.17509 18.8705 5.9408 18.9541 5.70987C19.0656 5.48897 19.1945 5.27477 19.3409 5.07395C19.5046 4.89322 19.6788 4.72252 19.867 4.56857C20.0796 4.42799 20.3026 4.30081 20.5325 4.19371C20.7695 4.11004 21.0134 4.04645 21.2608 4.00294C21.5221 3.98285 21.7869 3.98285 22.0483 4.00294C22.2957 4.04645 22.5431 4.11338 22.78 4.19371C22.78 4.19371 22.78 4.19371 22.7835 4.19371C23.0135 4.30081 23.2365 4.42465 23.4455 4.56522C23.6337 4.72252 23.8114 4.88987 23.9717 5.0706C24.1145 5.26807 24.2435 5.47893 24.3515 5.69648C24.4421 5.93076 24.5083 6.17509 24.5571 6.42276C24.578 6.67043 24.578 6.92145 24.5571 7.16912C24.5118 7.4101 24.4421 7.64773 24.355 7.87532C24.2435 8.09957 24.1145 8.31042 23.9647 8.51459C23.8009 8.69867 23.6232 8.86936 23.4316 9.02667C23.226 9.16389 23.0065 9.28773 22.78 9.39148C22.78 9.39148 22.78 9.39148 22.7765 9.39148C22.773 9.39148 22.7765 9.39148 22.773 9.39148C22.5396 9.47181 22.2991 9.5354 22.0552 9.58225C21.9542 9.58895 21.8566 9.59564 21.7556 9.59899C21.5221 9.60568 21.2887 9.60234 21.0587 9.60234H18.738L18.7415 6.78757ZM15.3512 24.4091V18.7562C15.3616 18.6792 15.3686 18.6022 15.3686 18.5252V12.9426C15.8773 12.9426 16.386 12.9426 16.8948 12.9426H18.6196V18.3746C18.6161 18.4215 18.6126 18.4717 18.6126 18.5185V24.2585C18.6126 24.3388 18.6126 24.4225 18.6161 24.5062H15.3512C15.3512 24.4727 15.3512 24.4426 15.3512 24.4091ZM9.42761 6.40603C9.4729 6.16839 9.54259 5.93411 9.62622 5.70317C9.73772 5.48562 9.86316 5.27477 10.0095 5.07395C10.1733 4.88987 10.3545 4.71583 10.5461 4.55852C10.7517 4.4213 10.9677 4.30081 11.1907 4.19706C11.4381 4.11004 11.6925 4.0431 11.9538 3.99624C12.2117 3.97616 12.473 3.97616 12.7309 3.99624C12.9783 4.03975 13.2222 4.10669 13.4626 4.18702C13.6961 4.29412 13.9191 4.4213 14.1316 4.56187C14.3198 4.71583 14.494 4.88652 14.6543 5.06726C14.8006 5.27142 14.933 5.48562 15.0445 5.70987C15.1282 5.93076 15.1944 6.15835 15.2397 6.38929C15.2501 6.52317 15.2571 6.6537 15.2571 6.79092V9.59899H13.0828C12.8284 9.59899 12.5741 9.60234 12.3197 9.59899C12.1908 9.59564 12.0618 9.5923 11.9329 9.58225C11.689 9.53874 11.4486 9.47515 11.2151 9.39483C10.9817 9.28773 10.7552 9.16054 10.5426 9.01662C10.3545 8.86267 10.1802 8.69532 10.0234 8.51459C9.8771 8.31042 9.74469 8.09622 9.63319 7.87532C9.63319 7.87532 9.63319 7.87532 9.63319 7.87198C9.63319 7.87198 9.63319 7.87198 9.63319 7.86863C9.54608 7.64104 9.47987 7.40341 9.43109 7.16578C9.40322 6.90806 9.40322 6.65704 9.42761 6.40603ZM4.77587 16.8518C4.59468 16.8518 4.41349 16.8585 4.22882 16.8618C4.187 16.8652 4.14867 16.8719 4.11034 16.8819V13.0363C4.11034 13.0062 4.11034 12.9727 4.11034 12.9426H11.8772V16.8518H4.77587ZM27.714 30.0219H8.41712C7.67145 30.0219 6.92578 30.0253 6.1801 30.0253C6.18359 29.8077 6.19056 29.5935 6.19056 29.3793V20.1953H11.8737V24.6903C11.8737 24.8442 11.8702 24.9948 11.8841 25.1488C11.9469 25.8583 12.2152 26.5344 12.7622 27.0365C13.3093 27.5385 13.9922 27.8062 14.7449 27.8498C15.3686 27.8866 16.0028 27.8531 16.6265 27.8531H19.0098C19.8391 27.8531 20.6127 27.592 21.212 27.0331C21.8009 26.4876 22.097 25.7111 22.097 24.9346V20.192H27.7906V29.1015C27.7906 29.4094 27.7941 29.714 27.7941 30.0219C27.7662 30.0219 27.7418 30.0219 27.714 30.0219ZM29.7559 16.8585C29.6478 16.8551 29.5468 16.8551 29.4423 16.8551H22.1005V12.9459H29.2088C29.4283 12.9459 29.6513 12.9359 29.8743 12.9359V16.8016C29.8743 16.8216 29.8743 16.8451 29.8743 16.8652C29.836 16.8618 29.7942 16.8618 29.7559 16.8585Z"/>
</svg>
