<svg width="20" height="16" viewBox="0 0 20 16" fill="none" xmlns="http://www.w3.org/2000/svg">
<path fill-rule="evenodd" clip-rule="evenodd" d="M18.8816 0.866934C18.7992 0.799312 18.7001 0.754401 18.5943 0.736271C18.4886 0.71814 18.3798 0.727559 18.279 0.763779C15.0987 1.89051 5.31865 5.41608 1.32055 6.83388C1.19731 6.8752 1.09076 6.95425 1.01675 7.05945C0.942743 7.16464 0.905163 7.29065 0.909448 7.41843C0.913733 7.5462 0.959673 7.66896 1.04057 7.76915C1.12146 7.86934 1.23299 7.94174 1.35873 7.97501C3.15214 8.48673 5.50517 9.20461 5.50517 9.20461C5.50517 9.20461 6.60512 12.3923 7.17901 14.0167C7.21354 14.1178 7.2731 14.2092 7.3524 14.2821C7.43171 14.3551 7.52825 14.4076 7.63332 14.4348C7.74078 14.4619 7.85338 14.4624 7.96106 14.4362C8.06875 14.41 8.16817 14.3577 8.25027 14.2844C9.1685 13.4488 10.5936 12.1576 10.5936 12.1576C10.5936 12.1576 13.3004 14.0637 14.8356 15.1106C14.956 15.1931 15.095 15.2463 15.2407 15.2651C15.3864 15.2839 15.5344 15.268 15.6725 15.2188C15.8088 15.1703 15.9306 15.0888 16.0267 14.9822C16.1228 14.8756 16.1902 14.7473 16.2225 14.6086C16.8825 11.6368 18.4798 4.12033 19.0776 1.41618C19.1003 1.31578 19.0939 1.2111 19.0593 1.11405C19.0246 1.017 18.9631 0.931479 18.8816 0.866934ZM15.7634 3.5994L8.04933 10.2797L7.76724 12.8293L6.49505 8.80116C6.49505 8.80116 12.2579 5.26581 15.5052 3.27526C15.5506 3.24756 15.6048 3.23728 15.6576 3.24592C15.7104 3.25456 15.7582 3.2818 15.792 3.32248C15.8249 3.36326 15.8402 3.41474 15.8349 3.46644C15.8295 3.51814 15.8039 3.56594 15.7634 3.5994Z" fill="#575D70"/>
</svg>
