<svg width="16" height="18" viewBox="0 0 16 18" fill="none" xmlns="http://www.w3.org/2000/svg">
<path d="M15.1741 4.86708C14.2278 4.86708 13.3546 4.55358 12.6535 4.02471C11.8493 3.41843 11.2715 2.5291 11.0675 1.50407C11.017 1.25081 10.9898 0.989454 10.9872 0.721619H8.28389V8.10831L8.28065 12.1543C8.28065 13.236 7.57624 14.1532 6.59979 14.4758C6.31641 14.5694 6.01036 14.6138 5.69168 14.5963C5.2849 14.5739 4.90372 14.4512 4.5724 14.253C3.86735 13.8313 3.38933 13.0663 3.37637 12.1913C3.35597 10.8236 4.46164 9.70852 5.82835 9.70852C6.09813 9.70852 6.35722 9.75257 6.59979 9.83256V7.81359V7.08781C6.34394 7.04992 6.08355 7.03017 5.82025 7.03017C4.32432 7.03017 2.92523 7.65199 1.92514 8.77223C1.16924 9.61881 0.715832 10.6989 0.645877 11.8314C0.554224 13.3193 1.09864 14.7336 2.15444 15.7771C2.30957 15.9303 2.47247 16.0724 2.64282 16.2036C3.54802 16.9002 4.65467 17.2779 5.82025 17.2779C6.08355 17.2779 6.34394 17.2584 6.59979 17.2205C7.68862 17.0593 8.69325 16.5608 9.48607 15.7771C10.4603 14.8142 10.9985 13.5359 11.0043 12.1754L10.9904 6.13339C11.4552 6.4919 11.9633 6.78856 12.5087 7.01883C13.3569 7.3767 14.2563 7.55806 15.1819 7.55774V5.5948V4.86643C15.1825 4.86708 15.1747 4.86708 15.1741 4.86708Z" fill="#575D70"/>
</svg>
