<svg width="20" height="12" viewBox="0 0 20 12" fill="none" xmlns="http://www.w3.org/2000/svg">
<path fill-rule="evenodd" clip-rule="evenodd" d="M17.2106 7.47655C17.8956 8.07595 18.548 8.70799 19.1652 9.37027C19.4361 9.67098 19.6722 9.99805 19.8695 10.3464C20.1378 10.8505 19.8983 11.4048 19.4288 11.4321H16.511C16.1635 11.4572 15.8146 11.4044 15.4925 11.2782C15.1704 11.152 14.8842 10.9556 14.6569 10.7052C14.2544 10.3101 13.8808 9.89219 13.4927 9.47893C13.3397 9.30974 13.1641 9.16036 12.9704 9.0341C12.8976 8.97177 12.8098 8.92701 12.7146 8.90416C12.6195 8.88131 12.5199 8.8809 12.4245 8.90283C12.3292 8.92476 12.2408 8.96848 12.1673 9.03011C12.0938 9.09174 12.0373 9.16969 12.0026 9.25674C11.7969 9.66676 11.6906 10.115 11.6913 10.569C11.6625 11.2321 11.4564 11.4048 10.7617 11.4321C9.31487 11.5426 7.86599 11.2437 6.5983 10.5735C5.487 9.9246 4.53083 9.06335 3.79081 8.04422C2.32784 6.06069 1.09111 3.93554 0.101608 1.70446C-0.133153 1.20491 0.0393573 0.936649 0.614284 0.923025C1.56291 0.904859 2.51631 0.9094 3.46494 0.923025C3.6437 0.926575 3.81667 0.984253 3.95878 1.08712C4.10089 1.18998 4.20484 1.33304 4.25553 1.49558C4.75937 2.71243 5.40883 3.87031 6.19113 4.94685C6.38408 5.2428 6.6305 5.50424 6.91927 5.71898C6.97574 5.7748 7.04742 5.81451 7.1263 5.83429C7.20518 5.85406 7.28823 5.85323 7.36644 5.83118C7.44465 5.80913 7.51496 5.76709 7.56961 5.70966C7.62427 5.65224 7.66118 5.58122 7.67629 5.50521C7.76944 5.27367 7.826 5.03042 7.84402 4.7832C7.93112 3.93806 7.915 3.08629 7.79607 2.24464C7.77844 2.0071 7.67655 1.78209 7.50692 1.60645C7.33728 1.43081 7.10991 1.31494 6.86183 1.27738C6.58395 1.22742 6.6223 1.12755 6.76124 0.973139C6.85986 0.836633 6.99321 0.725787 7.14899 0.651162C7.30477 0.576537 7.47787 0.540355 7.65231 0.546054H10.9486C11.4661 0.641423 11.581 0.868741 11.6481 1.36829L11.6529 4.8923C11.6481 5.08758 11.7535 5.66001 12.1176 5.79171C12.2478 5.81005 12.3807 5.78971 12.4982 5.73361C12.6157 5.67751 12.7121 5.5882 12.774 5.47816C13.535 4.65547 14.1615 3.72943 14.6329 2.73071C14.8533 2.29928 15.0449 1.84494 15.2318 1.39535C15.2759 1.2435 15.375 1.11113 15.5116 1.02148C15.6482 0.931827 15.8137 0.890556 15.9792 0.904841L19.1364 0.914155C19.2309 0.911894 19.3254 0.916573 19.4192 0.927903C19.9558 1.01419 20.0995 1.23674 19.9366 1.74083C19.6351 2.50077 19.2081 3.21045 18.6717 3.84344C18.1447 4.54735 17.5794 5.22828 17.0572 5.93673C16.5781 6.58615 16.6117 6.90887 17.2106 7.47655Z" fill="#575D70"/>
</svg>
