<svg viewBox="0 0 18 16" fill="none" xmlns="http://www.w3.org/2000/svg">
<path d="M2.86363 11.8844H5.07272C5.23957 11.8843 5.40064 11.9443 5.52545 12.0531L8.78999 14.9019C8.98737 15.0674 9.22825 15.1749 9.48499 15.2121C9.74174 15.2493 10.004 15.2146 10.2416 15.1122C10.4831 15.0059 10.6879 14.8327 10.8307 14.6139C10.9735 14.395 11.0481 14.1399 11.0454 13.88V1.85272C11.0481 1.59277 10.9735 1.33771 10.8307 1.11883C10.6879 0.899951 10.4831 0.726768 10.2416 0.620529C10.0041 0.512871 9.73977 0.475796 9.48112 0.513873C9.22246 0.55195 8.9808 0.663515 8.7859 0.834823L5.52272 3.67957C5.39862 3.78773 5.23863 3.84773 5.07272 3.84833H2.86363C2.32114 3.84833 1.80087 4.05999 1.41728 4.43676C1.03368 4.81352 0.818176 5.32452 0.818176 5.85734V9.87535C0.818176 10.4082 1.03368 10.9192 1.41728 11.2959C1.80087 11.6727 2.32114 11.8844 2.86363 11.8844Z" fill="#808699"/>
<path d="M12.7711 8.49317C12.692 8.53436 12.6219 8.59046 12.5649 8.65826C12.5078 8.72606 12.4649 8.80423 12.4387 8.8883C12.4124 8.97238 12.4032 9.06071 12.4117 9.14826C12.4202 9.23581 12.4462 9.32086 12.4881 9.39856C12.5747 9.55384 12.7195 9.66983 12.8918 9.72186C13.064 9.77388 13.2502 9.75784 13.4106 9.67714C13.729 9.48957 13.9926 9.22419 14.1756 8.90686C14.3585 8.58952 14.4547 8.23105 14.4547 7.86635C14.4547 7.50166 14.3585 7.14319 14.1756 6.82585C13.9926 6.50851 13.729 6.24313 13.4106 6.05556C13.2508 5.97227 13.0638 5.95475 12.8908 6.00687C12.7178 6.05899 12.5729 6.17647 12.4881 6.33348C12.4033 6.49048 12.3855 6.67415 12.4385 6.84407C12.4916 7.01399 12.6112 7.15624 12.7711 7.23954C12.8703 7.31244 12.9508 7.40705 13.0063 7.51586C13.0617 7.62466 13.0906 7.74467 13.0906 7.86635C13.0906 7.98804 13.0617 8.10805 13.0063 8.21685C12.9508 8.32566 12.8703 8.42027 12.7711 8.49317Z" fill="#808699"/>
<path d="M14.777 3.63336C14.698 3.59066 14.6112 3.56377 14.5216 3.55424C14.432 3.5447 14.3414 3.55272 14.2549 3.57782C14.1685 3.60292 14.088 3.6446 14.018 3.70046C13.9481 3.75632 13.8901 3.82524 13.8475 3.90324C13.8049 3.98124 13.7784 4.06678 13.7696 4.15489C13.7609 4.243 13.77 4.33195 13.7964 4.41658C13.8229 4.50121 13.8662 4.57985 13.9238 4.64795C13.9814 4.71605 14.0522 4.77225 14.132 4.81331C14.6639 5.12922 15.1004 5.57858 15.3968 6.11517C15.6931 6.65176 15.8386 7.25621 15.8182 7.86633C15.8386 8.47645 15.6931 9.0809 15.3968 9.61749C15.1004 10.1541 14.6639 10.6034 14.132 10.9193C13.9728 11.0032 13.854 11.1458 13.8017 11.3157C13.7494 11.4856 13.7679 11.6689 13.8531 11.8254C13.9408 11.98 14.0862 12.095 14.2586 12.1461C14.431 12.1972 14.617 12.1804 14.777 12.0993C15.5253 11.668 16.1428 11.0482 16.5656 10.304C16.9883 9.55987 17.2011 8.7183 17.1818 7.86633C17.2011 7.01436 16.9883 6.17279 16.5656 5.42861C16.1428 4.68444 15.5253 4.06466 14.777 3.63336Z" fill="#808699"/>
</svg>
