<svg width="20" height="14" viewBox="0 0 20 14" fill="none" xmlns="http://www.w3.org/2000/svg">
<path d="M18.7163 2.62787C18.5068 1.84912 17.8927 1.23525 17.1139 1.02556C15.6911 0.636353 9.99982 0.636353 9.99982 0.636353C9.99982 0.636353 4.30878 0.636353 2.886 1.0108C2.12217 1.22027 1.49306 1.84923 1.28354 2.62787C0.909119 4.05022 0.909119 6.99999 0.909119 6.99999C0.909119 6.99999 0.909119 9.96463 1.28354 11.3721C1.49328 12.1507 2.10719 12.7646 2.88611 12.9743C4.32376 13.3636 10 13.3636 10 13.3636C10 13.3636 15.6911 13.3636 17.1139 12.9892C17.8928 12.7796 18.5068 12.1657 18.7165 11.3871C19.0909 9.96463 19.0909 7.01497 19.0909 7.01497C19.0909 7.01497 19.1058 4.05022 18.7163 2.62787ZM8.18785 9.72509V4.27489L12.9204 6.99999L8.18785 9.72509Z" fill="#575D70"/>
</svg>
